<svg width="148" height="92" viewBox="0 0 148 92" fill="none" xmlns="http://www.w3.org/2000/svg">
<g id="Group 7">
<g id="Group 5">
<path id="Vector" fill-rule="evenodd" clip-rule="evenodd" d="M4.3832 5.23088C4.46633 5.12452 4.70524 4.88454 5.06062 4.63488C5.61331 4.2466 6.21727 4.01609 6.86189 3.99853L6.75336 3.99854C7.40663 4.0162 8.01067 4.24627 8.55923 4.63299C8.91011 4.88035 9.14404 5.11739 9.22359 5.22056L10.4449 6.80437L13.6125 4.3618L12.3912 2.77798C12.0849 2.38069 11.5779 1.86705 10.864 1.36372C9.71215 0.551714 8.37078 0.0407996 6.86145 -1.79282e-06L6.75292 1.3466e-05C5.25237 0.040907 3.91488 0.551383 2.76124 1.36183C2.04805 1.86286 1.53963 2.37356 1.23161 2.76766L0 4.34347L3.1516 6.80668L4.3832 5.23088ZM32.3832 5.23088C32.4663 5.12452 32.7052 4.88454 33.0606 4.63488C33.6133 4.2466 34.2173 4.01609 34.8619 3.99853L34.7534 3.99854C35.4066 4.0162 36.0107 4.24627 36.5592 4.63299C36.9101 4.88035 37.144 5.11739 37.2236 5.22056L38.4449 6.80437L41.6125 4.3618L40.3912 2.77798C40.0849 2.38069 39.5779 1.86705 38.864 1.36372C37.7121 0.551714 36.3708 0.0407996 34.8614 -1.79282e-06L34.7529 1.3466e-05C33.2524 0.040907 31.9149 0.551383 30.7612 1.36183C30.048 1.86286 29.5396 2.37356 29.2316 2.76766L28 4.34347L31.1516 6.80668L32.3832 5.23088Z" transform="translate(87 60.001)" fill="#263238"/>
<path id="Vector_2" fill-rule="evenodd" clip-rule="evenodd" d="M40 11.7073C61.4336 11.7073 71.3823 20.111 76 27.9123V3.84561V1.95122H80V3.84561V48.8373V49.7845V60.4878C80 60.4878 80 80 40 80C0 80 0 60.4878 0 60.4878V49.7845V48.8373V3.84561V1.95122H4V3.84561V27.9123C8.61773 20.111 18.5664 11.7073 40 11.7073ZM10 50.7317C10 42.6495 16.7081 36.0976 25.0051 36.0976H54.9949C63.282 36.0976 70 42.6477 70 50.7317C70 58.8139 63.2919 65.3659 54.9949 65.3659H25.0051C16.718 65.3659 10 58.8157 10 50.7317ZM4 1.95122C4 0.873591 3.10457 0 2 0C0.89543 0 0 0.873591 0 1.95122H4ZM80 1.95122C80 0.873591 79.1046 0 78 0C76.8954 0 76 0.873591 76 1.95122H80Z" transform="translate(68 12)" fill="#263238"/>
</g>
<g id="Group">
<path id="Vector_3" d="M40 0C34.11 0 28.6375 2.5375 24.825 7.0025C22.3725 5.69 19.6475 5 16.875 5C7.57 5 0 12.57 0 21.875C0 31.18 7.57 38.75 16.875 38.75C16.925 38.75 16.97 38.75 17.02 38.75C18.535 42.525 22.1325 45 26.25 45C30.06 45 33.5175 42.7975 35.185 39.415C36.7575 39.8025 38.3725 40 40 40C51.0275 40 60 31.0275 60 20C60 8.9725 51.0275 0 40 0ZM39.9975 37.5C38.24 37.5 36.5025 37.24 34.83 36.7225C34.195 36.525 33.51 36.87 33.285 37.5C32.225 40.49 29.3975 42.5 26.25 42.5C22.915 42.5 20.0375 40.3275 19.09 37.0975C18.9325 36.5625 18.265 36.2125 17.695 36.2125C17.6625 36.2125 17.635 36.2125 17.6 36.2125C17.3575 36.23 17.1175 36.2475 16.8725 36.2475C8.945 36.2475 2.4975 29.7975 2.4975 21.8725C2.4975 13.9475 8.945 7.4975 16.8725 7.4975C19.545 7.4975 22.1675 8.2525 24.4575 9.68C25.0025 10.02 25.7175 9.8925 26.11 9.38C29.4625 5.0075 34.525 2.5 39.9975 2.5C49.645 2.5 57.4975 10.35 57.4975 20C57.4975 29.65 49.645 37.5 39.9975 37.5Z" transform="translate(60) scale(-1 1)" fill="#263238"/>
<path id="Vector_4" d="M5 0C2.2425 0 0 2.2425 0 5C0 7.7575 2.2425 10 5 10C7.7575 10 10 7.7575 10 5C10 2.2425 7.7575 0 5 0ZM5 7.5C3.62 7.5 2.5 6.3775 2.5 5C2.5 3.6225 3.62 2.5 5 2.5C6.38 2.5 7.5 3.6225 7.5 5C7.5 6.3775 6.38 7.5 5 7.5Z" transform="translate(47.5 45) scale(-1 1)" fill="#263238"/>
<path id="Vector_5" d="M3.75 0C1.6825 0 0 1.6825 0 3.75C0 5.8175 1.6825 7.5 3.75 7.5C5.8175 7.5 7.5 5.8175 7.5 3.75C7.5 1.6825 5.8175 0 3.75 0ZM3.75 5C3.0625 5 2.5 4.44 2.5 3.75C2.5 3.06 3.0625 2.5 3.75 2.5C4.4375 2.5 5 3.06 5 3.75C5 4.44 4.4375 5 3.75 5Z" transform="translate(57.5 52.5) scale(-1 1)" fill="#263238"/>
<path id="searching" d="M13.5417 11.9167H12.6858L12.3825 11.6242C13.4442 10.3892 14.0833 8.78583 14.0833 7.04167C14.0833 3.1525 10.9308 0 7.04167 0C3.1525 0 0 3.1525 0 7.04167C0 10.9308 3.1525 14.0833 7.04167 14.0833C8.78583 14.0833 10.3892 13.4442 11.6242 12.3825L11.9167 12.6858V13.5417L17.3333 18.9475L18.9475 17.3333L13.5417 11.9167ZM7.04167 11.9167C4.34417 11.9167 2.16667 9.73917 2.16667 7.04167C2.16667 4.34417 4.34417 2.16667 7.04167 2.16667C9.73917 2.16667 11.9167 4.34417 11.9167 7.04167C11.9167 9.73917 9.73917 11.9167 7.04167 11.9167Z" transform="translate(19.25 13.25)" fill="#263238"/>
</g>
</g>
</svg>
