<svg width="147" height="80" viewBox="0 0 147 80" fill="none" xmlns="http://www.w3.org/2000/svg">
<g id="Group 7">
<g id="Group 5">
<path id="Vector" fill-rule="evenodd" clip-rule="evenodd" d="M4.3832 5.23088C4.46633 5.12452 4.70524 4.88454 5.06062 4.63488C5.61331 4.2466 6.21727 4.01609 6.86189 3.99853L6.75336 3.99854C7.40663 4.0162 8.01067 4.24627 8.55923 4.63299C8.91011 4.88035 9.14404 5.11739 9.22359 5.22056L10.4449 6.80437L13.6125 4.3618L12.3912 2.77798C12.0849 2.38069 11.5779 1.86705 10.864 1.36372C9.71215 0.551714 8.37078 0.0407996 6.86145 -1.79282e-06L6.75292 1.3466e-05C5.25237 0.040907 3.91488 0.551383 2.76124 1.36183C2.04805 1.86286 1.53963 2.37356 1.23161 2.76766L0 4.34347L3.1516 6.80668L4.3832 5.23088ZM32.3832 5.23088C32.4663 5.12452 32.7052 4.88454 33.0606 4.63488C33.6133 4.2466 34.2173 4.01609 34.8619 3.99853L34.7534 3.99854C35.4066 4.0162 36.0107 4.24627 36.5592 4.63299C36.9101 4.88035 37.144 5.11739 37.2236 5.22056L38.4449 6.80437L41.6125 4.3618L40.3912 2.77798C40.0849 2.38069 39.5779 1.86705 38.864 1.36372C37.7121 0.551714 36.3708 0.0407996 34.8614 -1.79282e-06L34.7529 1.3466e-05C33.2524 0.040907 31.9149 0.551383 30.7612 1.36183C30.048 1.86286 29.5396 2.37356 29.2316 2.76766L28 4.34347L31.1516 6.80668L32.3832 5.23088Z" transform="translate(19 48.0009)" fill="#263238"/>
<path id="Vector_2" fill-rule="evenodd" clip-rule="evenodd" d="M40 11.7073C61.4336 11.7073 71.3823 20.111 76 27.9123V3.84561V1.95122H80V3.84561V48.8373V49.7845V60.4878C80 60.4878 80 80 40 80C0 80 0 60.4878 0 60.4878V49.7845V48.8373V3.84561V1.95122H4V3.84561V27.9123C8.61773 20.111 18.5664 11.7073 40 11.7073ZM10 50.7317C10 42.6495 16.7081 36.0976 25.0051 36.0976H54.9949C63.282 36.0976 70 42.6477 70 50.7317C70 58.8139 63.2919 65.3659 54.9949 65.3659H25.0051C16.718 65.3659 10 58.8157 10 50.7317ZM4 1.95122C4 0.873591 3.10457 0 2 0C0.89543 0 0 0.873591 0 1.95122H4ZM80 1.95122C80 0.873591 79.1046 0 78 0C76.8954 0 76 0.873591 76 1.95122H80Z" fill="#263238"/>
</g>
<g id="listening">
<g id="Subtract" transform="translate(91 30.1649)">
<mask id="path-4-inside-1" fill="white">
<path fill-rule="evenodd" clip-rule="evenodd" d="M10.9399 0C4.44727 3.30469 0 10.0505 0 17.8351C0 25.6196 4.44727 32.3655 10.9399 35.6702C6.06494 31.2773 3 24.9142 3 17.8351C3 10.756 6.06494 4.39282 10.9399 0Z"/>
</mask>
<path fill-rule="evenodd" clip-rule="evenodd" d="M10.9399 0C4.44727 3.30469 0 10.0505 0 17.8351C0 25.6196 4.44727 32.3655 10.9399 35.6702C6.06494 31.2773 3 24.9142 3 17.8351C3 10.756 6.06494 4.39282 10.9399 0Z" fill="white"/>
<path d="M10.9399 0L12.2788 1.48578L10.0327 -1.7824L10.9399 0ZM10.9399 35.6702L10.0327 37.4526L12.2788 34.1844L10.9399 35.6702ZM2 17.8351C2 10.8318 5.99886 4.75911 11.8472 1.7824L10.0327 -1.7824C2.89568 1.85026 -2 9.26925 -2 17.8351H2ZM11.8472 33.8878C5.99886 30.9111 2 24.8383 2 17.8351H-2C-2 26.4009 2.89568 33.8199 10.0327 37.4526L11.8472 33.8878ZM12.2788 34.1844C7.80686 30.1548 5 24.3241 5 17.8351H1C1 25.5043 4.32302 32.3999 9.60112 37.1559L12.2788 34.1844ZM5 17.8351C5 11.3461 7.80686 5.51538 12.2788 1.48578L9.60112 -1.48578C4.32302 3.27026 1 10.1659 1 17.8351H5Z" fill="#263238" mask="url(#path-4-inside-1)"/>
</g>
<g id="Ellipse" transform="translate(99 24)">
<circle cx="24" cy="24" r="24" fill="white"/>
<circle cx="24" cy="24" r="23" stroke="#263238" stroke-width="2"/>
</g>
<path id="Subtract_2" fill-rule="evenodd" clip-rule="evenodd" d="M7.33301 0C3.02393 1.8208 0 6.08655 0 11.0586C0 16.0306 3.02393 20.2964 7.33301 22.1172C6.61133 21.0316 5.99268 19.8715 5.49121 18.6508C3.354 16.8168 2 14.0958 2 11.0586C2 8.02136 3.354 5.30042 5.49121 3.46643C5.99268 2.24573 6.61133 1.08557 7.33301 0Z" transform="translate(84 36.9414)" fill="#263238"/>
</g>
</g>
</svg>
