<svg width="80" height="80" viewBox="0 0 80 80" fill="none" xmlns="http://www.w3.org/2000/svg">
<g id="Group 5">
<path id="Vector" fill-rule="evenodd" clip-rule="evenodd" d="M4.3832 5.23088C4.46633 5.12452 4.70524 4.88454 5.06062 4.63488C5.61331 4.2466 6.21727 4.01609 6.86189 3.99853L6.75336 3.99854C7.40663 4.0162 8.01067 4.24627 8.55923 4.63299C8.91011 4.88035 9.14404 5.11739 9.22359 5.22056L10.4449 6.80437L13.6125 4.3618L12.3912 2.77798C12.0849 2.38069 11.5779 1.86705 10.864 1.36372C9.71215 0.551714 8.37078 0.0407996 6.86145 -1.79282e-06L6.75292 1.3466e-05C5.25237 0.040907 3.91488 0.551383 2.76124 1.36183C2.04805 1.86286 1.53963 2.37356 1.23161 2.76766L0 4.34347L3.1516 6.80668L4.3832 5.23088ZM32.3832 5.23088C32.4663 5.12452 32.7052 4.88454 33.0606 4.63488C33.6133 4.2466 34.2173 4.01609 34.8619 3.99853L34.7534 3.99854C35.4066 4.0162 36.0107 4.24627 36.5592 4.63299C36.9101 4.88035 37.144 5.11739 37.2236 5.22056L38.4449 6.80437L41.6125 4.3618L40.3912 2.77798C40.0849 2.38069 39.5779 1.86705 38.864 1.36372C37.7121 0.551714 36.3708 0.0407996 34.8614 -1.79282e-06L34.7529 1.3466e-05C33.2524 0.040907 31.9149 0.551383 30.7612 1.36183C30.048 1.86286 29.5396 2.37356 29.2316 2.76766L28 4.34347L31.1516 6.80668L32.3832 5.23088Z" transform="translate(19.0002 48.001)" fill="#263238"/>
<path id="Vector_2" fill-rule="evenodd" clip-rule="evenodd" d="M40 11.7073C61.4336 11.7073 71.3823 20.111 76 27.9123V3.84561V1.95122H80V3.84561V48.8373V49.7845V60.4878C80 60.4878 80 80 40 80C0 80 0 60.4878 0 60.4878V49.7845V48.8373V3.84561V1.95122H4V3.84561V27.9123C8.61773 20.111 18.5664 11.7073 40 11.7073ZM10 50.7317C10 42.6495 16.7081 36.0976 25.0051 36.0976H54.9949C63.282 36.0976 70 42.6477 70 50.7317C70 58.8139 63.2919 65.3659 54.9949 65.3659H25.0051C16.718 65.3659 10 58.8157 10 50.7317ZM4 1.95122C4 0.873591 3.10457 0 2 0C0.89543 0 0 0.873591 0 1.95122H4ZM80 1.95122C80 0.873591 79.1046 0 78 0C76.8954 0 76 0.873591 76 1.95122H80Z" fill="#263238"/>
</g>
</svg>
